<svg width="200" height="200" viewBox="0 0 200 200" fill="none" xmlns="http://www.w3.org/2000/svg">
<rect width="200" height="200" fill="#F5F8FD"/>
<g clip-path="url(#clip0_1_10)">
<path d="M141 127.929V137.671C141 139.509 139.509 141 137.671 141H78.7288C76.8906 141 75.4 139.509 75.4 137.671V127.929C75.4 126.091 73.9094 124.6 72.0712 124.6H62.3288C60.4906 124.6 59 123.109 59 121.271V62.3288C59 60.4906 60.4906 59 62.3288 59H72.0712C73.9094 59 75.4 60.4906 75.4 62.3288V121.271C75.4 123.109 76.8906 124.6 78.7288 124.6H137.671C139.509 124.6 141 126.091 141 127.929Z" fill="#FFA500"/>
<path d="M141 62.3288V104.871C141 106.709 139.51 108.2 137.671 108.2H95.1289C93.2906 108.2 91.8 106.709 91.8 104.871V95.1288C91.8 93.2906 93.2906 91.8 95.1289 91.8H121.271C123.11 91.8 124.6 90.3094 124.6 88.4712V78.7288C124.6 76.8906 123.11 75.4 121.271 75.4H95.1289C93.2906 75.4 91.8 73.9094 91.8 72.0712V62.3288C91.8 60.4906 93.2906 59 95.1289 59H137.671C139.51 59 141 60.4906 141 62.3288Z" fill="#FFA500"/>
</g>
<defs>
<clipPath id="clip0_1_10">
<rect width="82" height="82" fill="white" transform="translate(59 59)"/>
</clipPath>
</defs>
</svg>
