<svg width="128" height="30" viewBox="0 0 128 30" fill="none" xmlns="http://www.w3.org/2000/svg">
<g clip-path="url(#clip0_25_1984)">
<path d="M30 25.2179V28.7821C30 29.4547 29.4547 30 28.7821 30H7.21785C6.54534 30 6 29.4547 6 28.7821V25.2179C6 24.5453 5.45466 24 4.78215 24H1.21786C0.54533 24 0 23.4547 0 22.7821V1.21786C0 0.54533 0.54533 0 1.21786 0H4.78215C5.45466 0 6 0.54533 6 1.21786V22.7821C6 23.4547 6.54534 24 7.21785 24H28.7821C29.4547 24 30 24.5453 30 25.2179Z" fill="#FF6143"/>
<path d="M30 1.21786V16.7821C30 17.4547 29.4547 18 28.7822 18H13.2179C12.5453 18 12 17.4547 12 16.7821V13.2179C12 12.5453 12.5453 12 13.2179 12H22.7821C23.4547 12 24 11.4547 24 10.7821V7.21785C24 6.54534 23.4547 6 22.7821 6H13.2179C12.5453 6 12 5.45466 12 4.78215V1.21786C12 0.545331 12.5453 0 13.2179 0H28.7822C29.4547 0 30 0.545331 30 1.21786Z" fill="#FF6143"/>
</g>
<path d="M37.3325 8.94971V4.0415H60.924V8.94971H51.898V29.4508H46.3585V8.94971H37.3325Z" fill="white"/>
<path d="M59.3312 21.2114V10.2255H64.6937V20.414C64.6937 21.9378 65.1066 23.1014 65.9325 23.9047C66.723 24.7197 67.8734 25.1273 69.3836 25.1273C69.4072 25.1273 69.4308 25.1273 69.4544 25.1273C70.9529 25.1273 72.1563 24.6843 73.0648 23.7983C73.9851 22.9242 74.4453 21.7961 74.4453 20.414V10.2255H79.8078V29.4508H74.6223V27.6434H74.5515C72.9114 29.2145 70.7523 30 68.074 30C65.3367 30 63.1952 29.2263 61.6496 27.6788C60.104 26.1314 59.3312 23.9755 59.3312 21.2114Z" fill="white"/>
<path d="M82.6749 19.8293C82.6749 18.2582 82.958 16.8524 83.5244 15.6121C84.1025 14.36 84.8812 13.2968 85.8605 12.4227C86.8398 11.5367 87.9843 10.8575 89.2939 10.385C90.6154 9.91245 92.0135 9.67619 93.4884 9.67619C94.5974 9.67619 95.6888 9.81204 96.7625 10.0837C97.8362 10.3436 98.8214 10.7512 99.7181 11.3064C100.615 11.8616 101.393 12.5644 102.054 13.4149C102.715 14.2536 103.193 15.2577 103.488 16.4272L98.4792 17.8802C98.1134 16.6989 97.4881 15.8247 96.6032 15.2577C95.7301 14.6789 94.6918 14.3895 93.4884 14.3895C91.8247 14.3895 90.4974 14.8797 89.5063 15.8602C88.527 16.8406 88.0374 18.1637 88.0374 19.8293C88.0374 21.4949 88.527 22.8179 89.5063 23.7983C90.4856 24.7788 91.8129 25.269 93.4884 25.269C96.0723 25.269 97.7359 24.1114 98.4792 21.7961L103.488 23.2491C103.193 24.3831 102.715 25.3753 102.054 26.2259C101.393 27.0646 100.615 27.7674 99.7181 28.3344C98.8214 28.8896 97.8362 29.3031 96.7625 29.5748C95.6888 29.8583 94.5974 30 93.4884 30C91.9899 30 90.58 29.7579 89.2585 29.2736C87.9371 28.7892 86.7867 28.0982 85.8074 27.2004C84.8399 26.3027 84.073 25.2336 83.5067 23.9933C82.9521 22.7411 82.6749 21.3531 82.6749 19.8293Z" fill="white"/>
<path d="M106.16 29.4508V4.0415H111.54V17.951H111.611L120.159 10.2255H127.415L118.389 18.0573L127.769 29.4508H121.062L114.62 21.2114H114.531L111.54 23.9755V29.4508H106.16Z" fill="white"/>
<defs>
<clipPath id="clip0_25_1984">
<rect width="30" height="30" fill="white"/>
</clipPath>
</defs>
</svg>
