<svg width="31" height="30" viewBox="0 0 31 30" fill="none" xmlns="http://www.w3.org/2000/svg">
<g clip-path="url(#clip0_25_1986)">
<path d="M30.6152 25.2179V28.7821C30.6152 29.4547 30.0699 30 29.3974 30H7.83309C7.16058 30 6.61523 29.4547 6.61523 28.7821V25.2179C6.61523 24.5453 6.06989 24 5.39738 24H1.8331C1.16056 24 0.615234 23.4547 0.615234 22.7821V1.21786C0.615234 0.54533 1.16056 0 1.8331 0H5.39738C6.06989 0 6.61523 0.54533 6.61523 1.21786V22.7821C6.61523 23.4547 7.16058 24 7.83309 24H29.3974C30.0699 24 30.6152 24.5453 30.6152 25.2179Z" fill="#FF6143"/>
<path d="M30.6152 1.21786V16.7821C30.6152 17.4547 30.0699 18 29.3974 18H13.8331C13.1606 18 12.6152 17.4547 12.6152 16.7821V13.2179C12.6152 12.5453 13.1606 12 13.8331 12H23.3974C24.0699 12 24.6152 11.4547 24.6152 10.7821V7.21785C24.6152 6.54534 24.0699 6 23.3974 6H13.8331C13.1606 6 12.6152 5.45466 12.6152 4.78215V1.21786C12.6152 0.545331 13.1606 0 13.8331 0H29.3974C30.0699 0 30.6152 0.545331 30.6152 1.21786Z" fill="#FF6143"/>
</g>
<defs>
<clipPath id="clip0_25_1986">
<rect width="30" height="30" fill="white" transform="translate(0.615234)"/>
</clipPath>
</defs>
</svg>
